<svg height='100px' width='100px' fill="#68217a" xmlns="http://www.w3.org/2000/svg" version="1.1" x="0px" y="0px"
    xml:space="preserve">
    <g>
        <g>
            <path d="m5273.1 2400.1v-2c0-2.8-5-4-9.7-4s-9.7 1.3-9.7 4v2c0 1.8.7 3.6 2 4.9l5 4.9c.3.3.4.6.4 1v6.4c0 .4.2.7.6.8l2.9.9c.5.1 1-.2 1-.8v-7.2c0-.4.2-.7.4-1l5.1-5c1.3-1.3 2-3.1 2-4.9zm-9.7-.1c-4.8 0-7.4-1.3-7.5-1.8v0c.1-.5 2.7-1.8 7.5-1.8c4.8 0 7.3 1.3 7.5 1.8c-.2.5-2.7 1.8-7.5 1.8z" />
            <path d="m5268.4 2410.3c-.6 0-1 .4-1 1c0 .6.4 1 1 1h4.3c.6 0 1-.4 1-1c0-.6-.4-1-1-1h-4.3z" />
            <path d="m5272.7 2413.7h-4.3c-.6 0-1 .4-1 1c0 .6.4 1 1 1h4.3c.6 0 1-.4 1-1c0-.6-.4-1-1-1z" />
            <path d="m5272.7 2417h-4.3c-.6 0-1 .4-1 1c0 .6.4 1 1 1h4.3c.6 0 1-.4 1-1c0-.5-.4-1-1-1z" />
        </g>
        <g>
            <path d="m73.2 54.1c0-12.7-10.3-23.1-23.1-23.1c-12.8 0-23.1 10.4-23.1 23.1c0 12.8 10.4 23.1 23.1 23.1c12.8.1 23.1-10.3 23.1-23.1zm-12.7-2.2-9.6 9.6c-.7.7-1.6 1.1-2.5 1.1c-.9 0-1.8-.4-2.5-1.1l-6-6c-1.4-1.4-1.4-3.7 0-5.1c1.4-1.4 3.7-1.4 5.1 0l3.5 3.5 7.1-7.1c1.4-1.4 3.7-1.4 5.1 0c1.2 1.4 1.2 3.7-.2 5.1z" />
            <path d="m14.1 54.1c0-19.8 16.1-36 36-36h8.3v4.1c0 1.2.7 2.4 1.8 3c.5.3 1.1.4 1.6.4c.6 0 1.3-.2 1.8-.5l12.7-8.1c1-.6 1.6-1.7 1.6-2.9c0-1.2-.6-2.2-1.6-2.9l-12.7-8.2c-1-.7-2.4-.7-3.5-.1c-1.1.6-1.8 1.7-1.8 3l0 4.4h-8.3c-24.2 0-43.8 19.6-43.8 43.8c0 2.2 1.8 3.9 3.9 3.9s4-1.8 4-3.9z" />
            <path d="m78 31.4c1 1.2 1.9 2.5 2.7 3.8c.7 1.2 2 1.9 3.3 1.9c.7 0 1.4-.2 2-.6c.9-.5 1.5-1.4 1.7-2.4c.2-1 .1-2.1-.5-2.9c-1-1.6-2.1-3.2-3.3-4.7c-.7-.8-1.6-1.3-2.6-1.4c-.1 0-.3 0-.4 0c-.9 0-1.7.3-2.5.9c-.8.7-1.3 1.6-1.4 2.6c0 .9.3 1.9 1 2.8z" />
            <path d="m89.5 61.1c-.3-.1-.7-.1-1-.1c-1.7 0-3.3 1.2-3.8 2.9c-.4 1.5-.9 3-1.6 4.4c-.8 2 .1 4.3 2.1 5.1c.5.2 1 .3 1.5.3c1.6 0 3-.9 3.6-2.4c.7-1.8 1.4-3.6 1.9-5.4c.3-1 .2-2.1-.4-3c-.4-.9-1.3-1.5-2.3-1.8z" />
            <path d="m93 45.2c-.4-1.8-2-3.1-3.8-3.1c-.3 0-.5 0-.8.1c-1 .2-1.9.8-2.5 1.7c-.6.9-.8 1.9-.6 2.9c.3 1.5.5 3.1.7 4.6c.2 2.1 2 3.8 4.2 3.6c2.1-.2 3.8-2 3.6-4.2c-.2-1.9-.5-3.8-.8-5.6z" />
            <path d="m79.2 77.4c0 0-.1 0-.1 0c-1 0-2 .5-2.7 1.2c-1.1 1.1-2.2 2.2-3.4 3.2c-1.7 1.4-1.9 3.8-.5 5.5c.7.9 1.8 1.4 3 1.4c.9 0 1.8-.3 2.5-.9c1.5-1.2 2.9-2.5 4.2-3.9c.7-.8 1.1-1.8 1-2.8c0-1-.5-2-1.2-2.7c-.9-.6-1.8-1-2.8-1z" />
            <path d="m16.2 66.3c-.4-1-1.1-1.8-2-2.2c-.5-.2-1.1-.4-1.7-.4c-.5 0-.9.1-1.3.2c-2 .7-3.1 3-2.3 5c.6 1.8 1.4 3.5 2.3 5.2c.7 1.3 2 2.1 3.5 2.1c.6 0 1.2-.2 1.8-.4c1.9-1 2.7-3.4 1.7-5.3c-.8-1.3-1.5-2.7-2-4.2z" />
            <path d="m25.6 80.5c-.7-.7-1.7-1-2.6-1c-.1 0-.1 0-.2 0c-1 0-2 .5-2.7 1.3c-.7.8-1.1 1.8-1 2.8c0 1 .5 2 1.2 2.7c1.4 1.3 2.9 2.5 4.4 3.6c.7.5 1.4.7 2.3.7c1.3 0 2.5-.6 3.2-1.7c.6-.9.8-1.9.7-2.9c-.2-1-.7-1.9-1.6-2.5c-1.3-.9-2.5-1.9-3.7-3z" />
            <path d="m65.1 88.2c-.5-.3-1.1-.4-1.7-.4c-.4 0-.9.1-1.3.2c-1.5.5-3 1-4.5 1.3c-1 .2-1.9.8-2.5 1.7c-.6.9-.8 1.9-.5 2.9c.4 1.8 2 3.1 3.8 3.1c.3 0 .5 0 .8-.1c1.8-.4 3.7-.9 5.5-1.6c1-.4 1.8-1.1 2.2-2c.4-.9.5-2 .2-3c-.4-.9-1.1-1.7-2-2.1z" />
            <path d="m45.1 89.7c-1.6-.2-3.1-.5-4.6-.9c-1-.3-2.1-.1-3 .4c-.9.5-1.6 1.4-1.8 2.4c-.3 1-.1 2.1.4 3c.5.9 1.4 1.6 2.4 1.8c1.8.5 3.7.9 5.6 1.1c1 .1 2-.1 2.9-.7c.8-.6 1.4-1.6 1.5-2.6c.1-1-.1-2.1-.8-2.9c-.6-.9-1.5-1.4-2.6-1.6z" />
        </g>
    </g>
</svg>